<svg xmlns="http://www.w3.org/2000/svg" xmlns:xlink="http://www.w3.org/1999/xlink" xmlns:lucid="lucid" width="1740" height="1400"><g transform="translate(-20 0)" lucid:page-tab-id="0_0"><path d="M1103.87 42.37A33.3 33.3 0 0 0 1119 46h613a8 8 0 0 1 8 8v1318a8 8 0 0 1-8 8H48a8 8 0 0 1-8-8V28a8 8 0 0 1 8-8h1004a33.3 33.3 0 0 1 15.13 3.63zM40 46h1071" stroke="#3a414a" fill="#fff"/><use xlink:href="#a" transform="matrix(1,0,0,1,48,20) translate(461.55 16.6)"/><use xlink:href="#b" transform="matrix(1,0,0,1,52,54) translate(800.05 662.6)"/><path d="M435.04 271.6v9.86m0 9.86v19.74m0 9.87v19.74m0 9.86v19.74m0 9.87v19.74m0 9.87v19.73m0 9.87v19.74m0 9.86v19.73m0 9.86v19.74m0 9.87v19.73m0 9.87v19.74m0 9.88v19.73m0 9.88v19.74m0 9.87v19.72m0 9.87v19.73m0 9.87v19.73m0 9.87v19.74m0 9.87v19.74m0 9.87v19.75m0 9.87v19.73m0 9.87v19.74m0 9.87v19.73m0 9.87v19.74m0 9.87v19.73m0 9.87v19.74m0 9.87v19.73m0 9.87v19.74m0 9.86v19.73m0 9.86v19.74m0 9.87V1140m0 9.87v19.74m0 9.88v19.73m0 9.88v19.74m0 9.87v19.72m0 9.87v19.73m0 9.87v9.87" stroke="#333" fill="none"/><path d="M435.54 271.6h-1v-.5h1z" stroke="#333" stroke-width=".05" fill="#333"/><path d="M435.04 1307.75v3.52" stroke="#333" fill="none"/><path d="M416.1 359.36a8 8 0 0 1 8-8h24a8 8 0 0 1 8 8v861.78a8 8 0 0 1-8 8h-24a8 8 0 0 1-8-8z" stroke="#f2f2f2" fill="#ced4db"/><path d="M795.87 262.45v10.04m0 10.04v20.08m0 10.04v20.1m0 10.03v20.07m0 10.05V393m0 10.04v20.1m0 10.03v20.08m0 10.05v20.08m0 10.04v20.1m0 10.03v20.08m0 10.05v20.08m0 10.04v20.1m0 10.03v20.1m0 10.03v20.08m0 10.04v20.1m0 10.03v20.1m0 10.04v20.08m0 10.05v20.08m0 10.04v20.08m0 10.04v20.08m0 10.05v20.08m0 10.04v20.1m0 10.03v20.08m0 10.05v20.08m0 10.05v20.1m0 10.03v20.08m0 10.05v20.1m0 10.03v20.1m0 10.03v20.08m0 10.05v20.07m0 10.04v20.1m0 10.04v20.1m0 10.03v10.04" stroke="#333" fill="none"/><path d="M796.37 262.46h-1v-.5h1z" stroke="#333" stroke-width=".05" fill="#333"/><path d="M795.87 1226.5v.5" stroke="#333" fill="none"/><path d="M391.75 1275.64a8 8 0 0 1 8-8h70.58a8 8 0 0 1 8 8v77a8 8 0 0 1-8 8h-70.58a8 8 0 0 1-8-8z" fill="none"/><path d="M400.4 1276.94l69.27 74.4m0-74.4l-69.26 74.4" stroke="#5d646f" stroke-width="8" fill="none"/><path d="M775.87 428.7a8 8 0 0 1 8-8h24a8 8 0 0 1 8 8v712.44a8 8 0 0 1-8 8h-24a8 8 0 0 1-8-8z" stroke="#f2f2f2" fill="#ced4db"/><path d="M1155.04 262.45v10.03m0 10.02v20.05m0 10.02v20.05m0 10.02v20.05m0 10v20.06m0 10.03v20.03m0 10.03v20.05m0 10.03v20.05m0 10.02v20.05m0 10.02v20.05m0 10.03v20.04m0 10.02v20.05m0 10.02v20.04m0 10.02v20.05m0 10.03v20.05m0 10.03v20.05m0 10.03v20.05m0 10.02v20.05m0 10.02v20.05m0 10.02v20.04m0 10.03v20.04m0 10.04V904m0 10v20.06m0 10.02v20.05m0 10.02v20.05m0 10.03v20.04m0 10.03v20.05m0 10.02v20.05m0 10.02v20.05m0 10v20.06m0 10.03v20.03m0 10.03v20.05m0 10.03V1224.95l.05.17.06.16.1.16.12.14.14.12.16.1.16.07.18.04.2.02" stroke="#333" fill="none"/><path d="M1155.54 262.46h-1v-.5h1z" stroke="#333" stroke-width=".05" fill="#333"/><path d="M1156.2 1225.92h.5" stroke="#333" fill="none"/><path d="M1135.63 697.14a8 8 0 0 1 8-8h24a8 8 0 0 1 8 8v224a8 8 0 0 1-8 8h-24a8 8 0 0 1-8-8z" stroke="#f2f2f2" fill="#ced4db"/><path d="M340 157.14a8 8 0 0 1 8-8h174.08a8 8 0 0 1 8 8v106a8 8 0 0 1-8 8H348a8 8 0 0 1-8-8z" stroke="#000" stroke-opacity="0" fill="#ffaf28"/><use xlink:href="#c" transform="matrix(1,0,0,1,348,157.13697789918348) translate(51.99382716049382 56.55555555555555)"/><path d="M139.75 206.55c0 10.9-8.84 19.75-19.75 19.75-10.9 0-19.75-8.84-19.75-19.75 0-10.9 8.84-19.75 19.75-19.75 10.9 0 19.75 8.84 19.75 19.75z" stroke="#333" fill="#fff"/><path d="M120 226.3v47.3a27.6 27.6 0 0 0 4.28 14.76L160 344.8m-40-63.2l-40 63.2m0-98.75h80" stroke="#333" fill="none"/><path d="M80 194.8a8 8 0 0 1 8-8h64a8 8 0 0 1 8 8v164a8 8 0 0 1-8 8H88a8 8 0 0 1-8-8z" fill="none"/><use xlink:href="#d" transform="matrix(1,0,0,1,0,344.80252984154237) translate(99.28395061728395 14.555555555555555)"/><path d="M120.5 282.54l.45.03.45.1.42.18.4.24.34.3.3.34.23.4.17.4.1.45v10.1m0 10.1v20.24m0 10.1v20.24m0 10.1v20.23m0 10.12v20.23m0 10.1v20.24m0 10.1v20.22m0 10.1v20.24m0 10.1v20.23m0 10.1v20.23m0 10.1v20.24m0 10.1v20.23m.02 10.12v20.22m0 10.1v20.24m0 10.1v20.23m0 10.13v20.22m0 10.1v20.24m0 10.1v20.22m0 10.12v20.22m0 10.1v20.24m0 10.1v20.23m0 10.1v20.24m0 10.1v20.24m0 10.12v20.22m0 10.1v20.24m0 10.1v20.24m0 10.1v20.23m0 10.1v20.24m0 10.1v20.22m0 10.12v20.22m0 10.1v20.24m0 10.1v10.12M120.5 282.54H117M123.4 1225.4v.52M123.9 437.44h4.86m4.85 0h9.72m4.85 0h9.7m4.86 0h9.7m4.86 0h9.7m4.85 0h9.7m4.86 0h9.7m4.87 0h9.7m4.86 0h9.7m4.85 0h9.7m4.86 0h4.86v-.02H274.38m4.84 0h9.7m4.83 0h9.67m4.84 0h9.68m4.84 0h9.68m4.84 0h9.68m4.84 0h9.68m4.84 0H376m4.84 0l9.67-.02m4.85 0h9.68m4.84 0h4.84M123.92 437.44h-.5M397.42 447.6l17.22-10.2-17.22-10.18" stroke="#333" fill="none"/><use xlink:href="#e" transform="matrix(1,0,0,1,222.62591905663345,441.4389560403921) translate(0.005000000000002558 14.222222222222223)"/><use xlink:href="#f" transform="matrix(1,0,0,1,222.62591905663345,441.4389560403921) translate(34.57290123456791 14.222222222222223)"/><path d="M457.03 471.14h158.9a.03.03 0 0 0 .02-.03.03.03 0 0 1 .03-.02h143" stroke="#333" fill="none"/><path d="M457.04 471.64h-.5v-1h.5z" stroke="#333" stroke-width=".05" fill="#333"/><path d="M773.76 471.08l-14.27 4.64v-9.27z" stroke="#333" fill="#333"/><use xlink:href="#g" transform="matrix(1,0,0,1,551.8762532493872,445.75011771894253) translate(0.0049999999999954525 14.222222222222223)"/><use xlink:href="#h" transform="matrix(1,0,0,1,551.8762532493872,445.75011771894253) translate(70.96796296296299 14.222222222222223)"/><use xlink:href="#i" transform="matrix(1,0,0,1,551.8762532493872,445.75011771894253) translate(90.72104938271607 14.222222222222223)"/><path d="M700.83 148a8 8 0 0 1 8-8H882.9a8 8 0 0 1 8 8v106a8 8 0 0 1-8 8H708.84a8 8 0 0 1-8-8z" stroke="#000" stroke-opacity="0" fill="#ffaf28"/><use xlink:href="#j" transform="matrix(1,0,0,1,708.8339983282198,148) translate(51.4753086419753 56.55555555555555)"/><path d="M1060 148a8 8 0 0 1 8-8h174.08a8 8 0 0 1 8 8v106a8 8 0 0 1-8 8H1068a8 8 0 0 1-8-8z" stroke="#000" stroke-opacity="0" fill="#ffaf28"/><use xlink:href="#k" transform="matrix(1,0,0,1,1068,148) translate(35.672839506172835 56.55555555555555)"/><use xlink:href="#l" transform="matrix(1,0,0,1,1068,148) translate(69.25308641975309 56.55555555555555)"/><path d="M800 437.14a8 8 0 0 1 8-8h24a8 8 0 0 1 8 8v104a8 8 0 0 1-8 8h-24a8 8 0 0 1-8-8z" stroke="#f2f2f2" fill="#ced4db"/><path d="M820 428.18v-27.5a12 12 0 0 1 12-12h36.4a12 12 0 0 1 12 12v36.42a12 12 0 0 1-12 12h-11.6" stroke="#3a414a" fill="none"/><path d="M820.5 428.68h-1v-.5h1z" stroke="#3a414a" stroke-width=".05" fill="#3a414a"/><path d="M842.03 449.1l14.27-4.64v9.27z" stroke="#3a414a" fill="#3a414a"/><use xlink:href="#m" transform="matrix(1,0,0,1,888.4137966153071,409.43877327982415) translate(0.0049999999999954525 14.4)"/><use xlink:href="#n" transform="matrix(1,0,0,1,888.4137966153071,409.43877327982415) translate(52.004999999999995 14.4)"/><path d="M840.98 517h4.58m4.58 0h9.17m4.6 0h4.58l1.87.14 1.84.44 1.73.72m4.26 3.64l.97 1.6.72 1.74.43 1.83.02 5.2m0 5.16l.05 10.35m0 5.2l.04 10.34m.02 5.17l.02 5.2-.15 1.86-.44 1.83-.73 1.73m-3.64 4.26l-1.6.98-1.74.72-1.85.44h-4.18m-4.2.03l-8.36.03m-4.18.02l-8.37.03m-4.2.02l-4.17.02" stroke="#3a414a" fill="none"/><path d="M841 517.5h-.52v-1h.5z" stroke="#3a414a" stroke-width=".05" fill="#3a414a"/><path d="M817.9 585.7l14.28-4.65v9.27z" stroke="#3a414a" fill="#3a414a"/><use xlink:href="#o" transform="matrix(1,0,0,1,888.4773843043678,552.6293316664497) translate(0.005000000000002558 14.4)"/><path d="M1419.17 149.3a8 8 0 0 1 8-8h174.07a8 8 0 0 1 8 8v106a8 8 0 0 1-8 8h-174.07a8 8 0 0 1-8-8z" stroke="#000" stroke-opacity="0" fill="#ffaf28"/><use xlink:href="#p" transform="matrix(1,0,0,1,1427.1660016717804,149.29182998182802) translate(24.85802469135802 56.55555555555555)"/><use xlink:href="#q" transform="matrix(1,0,0,1,1427.1660016717804,149.29182998182802) translate(90.98148148148147 56.55555555555555)"/><path d="M1514.2 263.74v10m0 10v19.97m0 10v20m0 9.98v19.98m0 10v19.98m0 10v19.97m0 10v20m0 9.98v20m0 9.98v19.98m0 10v19.98m0 10v19.98m0 10v19.97m0 10v19.98m0 10v19.97m0 10v19.98m0 10v19.98m0 10v19.97m0 10v19.98m0 10v19.97m0 10v19.98m0 10v19.98m0 10v19.97m0 10v19.98m0 10v19.98m0 10v19.98m0 10v19.98m0 10v19.97m0 10v20m0 9.98v19.98m0 10v19.98m0 10V1173m0 10v19.97m0 9.98v10" stroke="#333" fill="none"/><path d="M1514.7 263.76h-1v-.52h1z" stroke="#333" stroke-width=".05" fill="#333"/><path d="M1514.2 1222.96v.52" stroke="#333" fill="none"/><path d="M774.9 621.86H616a.04.04 0 0 0-.03.03.04.04 0 0 1-.04.03h-143" stroke="#3a414a" fill="none"/><path d="M775.4 622.36h-.5v-1h.5z" stroke="#3a414a" stroke-width=".05" fill="#3a414a"/><path d="M458.16 621.93l14.27-4.63v9.27z" stroke="#3a414a" fill="#3a414a"/><use xlink:href="#r" transform="matrix(1,0,0,1,560.4972798770698,625.9313863579463) translate(0.005000000000002558 14.4)"/><use xlink:href="#s" transform="matrix(1,0,0,1,560.4972798770698,625.9313863579463) translate(63.005 14.4)"/><path d="M457.05 695.27h338.9v-.02H1119" stroke="#3a414a" fill="none"/><path d="M457.06 695.77h-.5v-1h.5z" stroke="#3a414a" stroke-width=".05" fill="#3a414a"/><path d="M1133.75 695.24l-14.26 4.63v-9.27z" stroke="#3a414a" fill="#3a414a"/><use xlink:href="#t" transform="matrix(1,0,0,1,641.7553695891894,669.668131053422) translate(0.005000000000002558 14.4)"/><path d="M1176.55 725.94h301.96" stroke="#3a414a" fill="none"/><path d="M1176.56 726.44h-.5v-1h.5z" stroke="#3a414a" stroke-width=".05" fill="#3a414a"/><path d="M1493.28 725.95L1479 730.6v-9.28z" stroke="#3a414a" fill="#3a414a"/><use xlink:href="#t" transform="matrix(1,0,0,1,1293.0720556461006,700.3444749420926) translate(0.005000000000002558 14.4)"/><path d="M1495.4 717.14a8 8 0 0 1 8-8h24a8 8 0 0 1 8 8v200.18a8 8 0 0 1-8 8h-24a8 8 0 0 1-8-8z" stroke="#f2f2f2" fill="#ced4db"/><path d="M1215.5 721.87a8 8 0 0 1 8-8h224a8 8 0 0 1 8 8v44a8 8 0 0 1-8 8h-224a8 8 0 0 1-8-8z" stroke="#000" stroke-opacity="0" fill="#fff" fill-opacity="0"/><use xlink:href="#u" transform="matrix(1,0,0,1,1220.5123100779842,718.8676213888527) translate(68.625 30.025)"/><path d="M1494.48 890.97h-158.9a.03.03 0 0 0-.03.03.03.03 0 0 1-.03.03H1192.5" stroke="#3a414a" fill="none"/><path d="M1494.98 891.47h-.52v-1h.52z" stroke="#3a414a" stroke-width=".05" fill="#3a414a"/><path d="M1177.74 891.03l14.26-4.63v9.27z" stroke="#3a414a" fill="#3a414a"/><use xlink:href="#v" transform="matrix(1,0,0,1,1273.1218819245587,865.3692352324117) translate(0.005000000000002558 14.4)"/><use xlink:href="#w" transform="matrix(1,0,0,1,1273.1218819245587,865.3692352324117) translate(43.90500000000001 14.4)"/><path d="M1215.5 888.63a8 8 0 0 1 8-8h224a8 8 0 0 1 8 8v44a8 8 0 0 1-8 8h-224a8 8 0 0 1-8-8z" stroke="#000" stroke-opacity="0" fill="#fff" fill-opacity="0"/><use xlink:href="#u" transform="matrix(1,0,0,1,1220.5123100779842,885.633081571898) translate(68.625 30.025)"/><path d="M1135.28 924.34h-4.9m-4.93 0h-9.82m-4.92 0h-9.82m-4.9 0h-9.84m-4.92 0h-9.83m-4.92 0h-9.83m-4.9 0h-9.84m-4.9 0h-9.84m-4.9 0h-9.84m-4.9 0h-9.84m-4.92 0h-9.83m-4.9 0h-9.84m-4.93 0h-9.82m-4.92 0h-9.83m-4.9 0h-9.84m-4.92 0h-9.83m-4.9 0h-9.83m-4.9 0h-9.84m-4.92 0H865m-4.9 0h-9.84m-4.9 0h-9.84m-4.92 0h-9.83m-4.9 0H806m-4.9 0h-9.82m-4.92 0h-9.8m-4.92 0h-9.82m-4.9 0h-9.83m-4.9 0h-9.83m-4.9 0h-9.83m-4.9 0h-9.82m-4.9 0h-9.83m-4.92 0h-9.8m-4.92 0h-9.82m-4.9 0H644m-4.9 0h-9.8m-4.92 0h-9.82m-4.9 0h-9.82m-4.9 0h-9.83m-4.9 0h-9.8m-4.92 0h-9.82m-4.9 0h-9.83m-4.9 0h-9.82m-4.9 0h-9.82m-4.9 0h-9.82m-4.9 0h-9.83m-4.9 0h-9.83m-4.9 0h-4.9" stroke="#3a414a" fill="none"/><path d="M1136 924.84h-.73v-1h.3z" stroke="#3a414a" stroke-width=".05" fill="#3a414a"/><path d="M474.78 914.16l-17.22 10.18 17.22 10.18" stroke="#3a414a" fill="none"/><use xlink:href="#v" transform="matrix(1,0,0,1,602.0957297155044,928.3366490190549) translate(0.005000000000002558 14.4)"/><use xlink:href="#w" transform="matrix(1,0,0,1,602.0957297155044,928.3366490190549) translate(43.90500000000001 14.4)"/><path d="M123.9 1009.14h145.54a.1.1 0 0 1 .1.1.1.1 0 0 0 .12.12H399.3M123.92 1009.14h-.5" stroke="#333" fill="none"/><path d="M414.07 1009.36L399.8 1014v-9.28z" stroke="#333" fill="#333"/><use xlink:href="#x" transform="matrix(1,0,0,1,245.36364374333394,1013.353745818404) translate(0.004999999999999005 14.222222222222223)"/><path d="M440 1137.14a8 8 0 0 1 8-8h24a8 8 0 0 1 8 8v64a8 8 0 0 1-8 8h-24a8 8 0 0 1-8-8z" stroke="#f2f2f2" fill="#ced4db"/><path d="M457.1 1026.87h158.88a.05.05 0 0 1 .04.05.05.05 0 0 0 .05.04h143" stroke="#3a414a" fill="none"/><path d="M457.1 1027.37h-.5v-1h.5z" stroke="#3a414a" stroke-width=".05" fill="#3a414a"/><path d="M773.84 1026.96l-14.27 4.64v-9.27z" stroke="#3a414a" fill="#3a414a"/><use xlink:href="#y" transform="matrix(1,0,0,1,585.6001437118164,1001.271978967374) translate(0.004999999999999005 14.4)"/><path d="M800 1057.14a8 8 0 0 1 8-8h24a8 8 0 0 1 8 8v44a8 8 0 0 1-8 8h-24a8 8 0 0 1-8-8z" stroke="#f2f2f2" fill="#ced4db"/><path d="M816.86 1025.43h51.6a12 12 0 0 1 12 12V1070a12 12 0 0 1-12 12h-11.62" stroke="#3a414a" fill="none"/><path d="M816.87 1025.93h-.5v-1h.5z" stroke="#3a414a" stroke-width=".05" fill="#3a414a"/><path d="M842.08 1082l14.26-4.64v9.27z" stroke="#3a414a" fill="#3a414a"/><use xlink:href="#z" transform="matrix(1,0,0,1,888.45829141327,1030.8607492146223) translate(0.005000000000002558 14.4)"/><use xlink:href="#A" transform="matrix(1,0,0,1,888.45829141327,1030.8607492146223) translate(56.90500000000001 14.4)"/><path d="M774.96 1070.05h-4.82m-4.8 0h-9.64m-4.82 0h-9.63m-4.82 0h-9.63m-4.82 0h-9.63m-4.82 0h-9.63m-4.8 0h-9.65m-4.8 0H669m-4.8 0h-9.64m-4.82 0h-9.63m-4.8 0h-9.64m-4.82 0H611.22m-4.8 0h-9.6m-4.8 0h-9.62m-4.8 0H568m-4.8 0h-9.62m-4.8 0h-9.6m-4.82 0h-9.6m-4.8 0h-9.6m-4.82 0h-9.6m-4.8 0h-9.62m-4.8 0h-9.6m-4.8 0h-4.82" stroke="#3a414a" fill="none"/><path d="M775.46 1070.55h-.5v-1h.5z" stroke="#3a414a" stroke-width=".05" fill="#3a414a"/><path d="M474.8 1059.87l-17.22 10.18 17.2 10.18" stroke="#3a414a" fill="none"/><use xlink:href="#o" transform="matrix(1,0,0,1,583.5270506333422,1074.0491026207967) translate(0.005000000000002558 14.4)"/><path d="M460 1128.18v-27.5a12 12 0 0 1 12-12h36.47a12 12 0 0 1 12 12v68.92a12 12 0 0 1-12 12h-11.62" stroke="#3a414a" fill="none"/><path d="M460.5 1128.68h-1v-.5h1z" stroke="#3a414a" stroke-width=".05" fill="#3a414a"/><path d="M482.1 1181.6l14.25-4.63v9.27z" stroke="#3a414a" fill="#3a414a"/><g><use xlink:href="#z" transform="matrix(1,0,0,1,528.4704866620103,1139.160522535927) translate(0.0049999999999954525 14.4)"/><use xlink:href="#B" transform="matrix(1,0,0,1,528.4704866620103,1139.160522535927) translate(56.905 14.4)"/><use xlink:href="#C" transform="matrix(1,0,0,1,528.4704866620103,1139.160522535927) translate(105.905 14.4)"/><use xlink:href="#D" transform="matrix(1,0,0,1,528.4704866620103,1139.160522535927) translate(146.805 14.4)"/></g><path d="M1520 757.14a8 8 0 0 1 8-8h24a8 8 0 0 1 8 8v104a8 8 0 0 1-8 8h-24a8 8 0 0 1-8-8z" stroke="#f2f2f2" fill="#ced4db"/><path d="M1560.92 773.63h27.55a12 12 0 0 1 12 12v26.42a12 12 0 0 1-12 12h-11.62" stroke="#3a414a" fill="none"/><path d="M1560.93 774.13h-.5v-1h.5z" stroke="#3a414a" stroke-width=".05" fill="#3a414a"/><path d="M1562.08 824.05l14.27-4.63v9.27z" stroke="#3a414a" fill="#3a414a"/><g><use xlink:href="#E" transform="matrix(1,0,0,1,1608.465267449351,788.0157836353394) translate(0.005000000000002558 14.4)"/></g><defs><path fill="#3a414a" d="M177-190C167-65 218 103 67 71c-23-6-38-20-44-43l32-5c15 47 100 32 89-28v-30C133-14 115 1 83 1 29 1 15-40 15-95c0-56 16-97 71-98 29-1 48 16 59 35 1-10 0-23 2-32h30zM94-22c36 0 50-32 50-73 0-42-14-75-50-75-39 0-46 34-46 75s6 73 46 73" id="F"/><path fill="#3a414a" d="M100-194c63 0 86 42 84 106H49c0 40 14 67 53 68 26 1 43-12 49-29l28 8c-11 28-37 45-77 45C44 4 14-33 15-96c1-61 26-98 85-98zm52 81c6-60-76-77-97-28-3 7-6 17-6 28h103" id="G"/><path fill="#3a414a" d="M59-47c-2 24 18 29 38 22v24C64 9 27 4 27-40v-127H5v-23h24l9-43h21v43h35v23H59v120" id="H"/><path fill="#3a414a" d="M212-179c-10-28-35-45-73-45-59 0-87 40-87 99 0 60 29 101 89 101 43 0 62-24 78-52l27 14C228-24 195 4 139 4 59 4 22-46 18-125c-6-104 99-153 187-111 19 9 31 26 39 46" id="I"/><path fill="#3a414a" d="M141-36C126-15 110 5 73 4 37 3 15-17 15-53c-1-64 63-63 125-63 3-35-9-54-41-54-24 1-41 7-42 31l-33-3c5-37 33-52 76-52 45 0 72 20 72 64v82c-1 20 7 32 28 27v20c-31 9-61-2-59-35zM48-53c0 20 12 33 32 33 41-3 63-29 60-74-43 2-92-5-92 41" id="J"/><path fill="#3a414a" d="M114-163C36-179 61-72 57 0H25l-1-190h30c1 12-1 29 2 39 6-27 23-49 58-41v29" id="K"/><path fill="#3a414a" d="M85-194c31 0 48 13 60 33l-1-100h32l1 261h-30c-2-10 0-23-3-31C134-8 116 4 85 4 32 4 16-35 15-94c0-66 23-100 70-100zm9 24c-40 0-46 34-46 75 0 40 6 74 45 74 42 0 51-32 51-76 0-42-9-74-50-73" id="L"/><path fill="#3a414a" d="M135-143c-3-34-86-38-87 0 15 53 115 12 119 90S17 21 10-45l28-5c4 36 97 45 98 0-10-56-113-15-118-90-4-57 82-63 122-42 12 7 21 19 24 35" id="M"/><g id="a"><use transform="matrix(0.05,0,0,0.05,0,0)" xlink:href="#F"/><use transform="matrix(0.05,0,0,0.05,10,0)" xlink:href="#G"/><use transform="matrix(0.05,0,0,0.05,20,0)" xlink:href="#H"/><use transform="matrix(0.05,0,0,0.05,25,0)" xlink:href="#I"/><use transform="matrix(0.05,0,0,0.05,37.95,0)" xlink:href="#J"/><use transform="matrix(0.05,0,0,0.05,47.95,0)" xlink:href="#K"/><use transform="matrix(0.05,0,0,0.05,53.900000000000006,0)" xlink:href="#L"/><use transform="matrix(0.05,0,0,0.05,63.900000000000006,0)" xlink:href="#M"/></g><path fill="#3a414a" d="M205 0l-28-72H64L36 0H1l101-248h38L239 0h-34zm-38-99l-47-123c-12 45-31 82-46 123h93" id="N"/><path fill="#3a414a" d="M24-231v-30h32v30H24zM24 0v-190h32V0H24" id="O"/><path fill="#3a414a" d="M115-194c53 0 69 39 70 98 0 66-23 100-70 100C84 3 66-7 56-30L54 0H23l1-261h32v101c10-23 28-34 59-34zm-8 174c40 0 45-34 45-75 0-40-5-75-45-74-42 0-51 32-51 76 0 43 10 73 51 73" id="P"/><path fill="#3a414a" d="M84 4C-5 8 30-112 23-190h32v120c0 31 7 50 39 49 72-2 45-101 50-169h31l1 190h-30c-1-10 1-25-2-33-11 22-28 36-60 37" id="Q"/><g id="b"><use transform="matrix(0.05,0,0,0.05,0,0)" xlink:href="#N"/><use transform="matrix(0.05,0,0,0.05,12,0)" xlink:href="#H"/><use transform="matrix(0.05,0,0,0.05,17,0)" xlink:href="#H"/><use transform="matrix(0.05,0,0,0.05,22,0)" xlink:href="#K"/><use transform="matrix(0.05,0,0,0.05,27.950000000000003,0)" xlink:href="#O"/><use transform="matrix(0.05,0,0,0.05,31.899999999999995,0)" xlink:href="#P"/><use transform="matrix(0.05,0,0,0.05,41.9,0)" xlink:href="#Q"/><use transform="matrix(0.05,0,0,0.05,51.900000000000006,0)" xlink:href="#H"/><use transform="matrix(0.05,0,0,0.05,56.900000000000006,0)" xlink:href="#G"/><use transform="matrix(0.05,0,0,0.05,66.9,0)" xlink:href="#M"/></g><path fill="#333" d="M87-220l-18 92h140l-5 28H64L45 0H11l48-248h178l-5 28H87" id="R"/><path fill="#333" d="M66-151c12-25 30-51 66-40l-6 26C45-176 58-65 38 0H6l36-190h30" id="S"/><path fill="#333" d="M30-147c31-64 166-65 159 27C183-49 158 1 86 4 9 8 1-88 30-147zM88-20c53 0 68-48 68-100 0-31-11-51-44-50-52 1-68 46-68 97 0 32 13 53 44 53" id="T"/><path fill="#333" d="M67-158c22-48 132-52 116 29L158 0h-32l25-140c3-38-53-32-70-12C52-117 51-52 38 0H6l36-190h30" id="U"/><path fill="#333" d="M51-54c-9 22 5 41 31 30L79-1C43 14 10-4 19-52l22-115H19l5-23h22l19-43h21l-9 43h35l-4 23H73" id="V"/><path fill="#333" d="M111-194c62-3 86 47 72 106H45c-7 38 6 69 45 68 27-1 43-14 53-32l24 11C152-15 129 4 87 4 38 3 12-23 12-71c0-70 32-119 99-123zm44 81c14-66-71-72-95-28-4 8-8 17-11 28h106" id="W"/><path fill="#333" d="M133-28C103 26-5 8 13-77c13-62 24-115 90-117 29-1 46 15 56 35l19-102h32L160 0h-30zM45-64c-2 27 10 43 35 43 54-1 69-50 69-103 0-29-15-46-42-46-53-1-58 58-62 106" id="X"/><g id="c"><use transform="matrix(0.04938271604938272,0,0,0.04938271604938272,0,0)" xlink:href="#R"/><use transform="matrix(0.04938271604938272,0,0,0.04938271604938272,10.814814814814815,0)" xlink:href="#S"/><use transform="matrix(0.04938271604938272,0,0,0.04938271604938272,16.691358024691358,0)" xlink:href="#T"/><use transform="matrix(0.04938271604938272,0,0,0.04938271604938272,26.567901234567902,0)" xlink:href="#U"/><use transform="matrix(0.04938271604938272,0,0,0.04938271604938272,36.44444444444444,0)" xlink:href="#V"/><use transform="matrix(0.04938271604938272,0,0,0.04938271604938272,41.382716049382715,0)" xlink:href="#W"/><use transform="matrix(0.04938271604938272,0,0,0.04938271604938272,51.25925925925927,0)" xlink:href="#U"/><use transform="matrix(0.04938271604938272,0,0,0.04938271604938272,61.13580246913581,0)" xlink:href="#X"/><path fill="#333" d="M-.9 1.23h72.8v1.3H-.9z"/></g><path fill="#333" d="M187 0l-14-72H61L19 0h-37l149-248h38L221 0h-34zm-19-99l-22-123L76-99h92" id="Y"/><path fill="#333" d="M44-68c0 29 11 47 38 47 30 0 42-19 51-41l28 9C148-21 126 4 82 4 31 4 10-29 12-85c3-77 74-140 146-93 12 8 15 23 18 40l-31 5c-1-22-13-36-36-36-52 0-65 49-65 101" id="Z"/><g id="d"><use transform="matrix(0.04938271604938272,0,0,0.04938271604938272,0,0)" xlink:href="#Y"/><use transform="matrix(0.04938271604938272,0,0,0.04938271604938272,11.851851851851853,0)" xlink:href="#Z"/><use transform="matrix(0.04938271604938272,0,0,0.04938271604938272,20.74074074074074,0)" xlink:href="#V"/><use transform="matrix(0.04938271604938272,0,0,0.04938271604938272,25.679012345679016,0)" xlink:href="#T"/><use transform="matrix(0.04938271604938272,0,0,0.04938271604938272,35.55555555555556,0)" xlink:href="#S"/></g><path fill="#333" d="M67-158c15-20 31-36 64-36 94 0 33 127 27 194h-32l25-140c3-38-53-32-70-12C52-117 51-51 37 0H6l51-261h31" id="aa"/><path fill="#333" d="M67-162c32-53 139-36 121 50C175-51 163 2 97 4 68 4 52-11 42-31 38 6 28 39 22 75H-9l50-265h29c-1 10 0 20-3 28zm89 36c0-26-10-43-35-43-54 0-67 50-69 103-1 29 14 45 42 46 53 0 62-58 62-106" id="ab"/><g id="e"><use transform="matrix(0.04938271604938272,0,0,0.04938271604938272,0,0)" xlink:href="#aa"/><use transform="matrix(0.04938271604938272,0,0,0.04938271604938272,9.876543209876544,0)" xlink:href="#V"/><use transform="matrix(0.04938271604938272,0,0,0.04938271604938272,14.814814814814817,0)" xlink:href="#V"/><use transform="matrix(0.04938271604938272,0,0,0.04938271604938272,19.75308641975309,0)" xlink:href="#ab"/></g><path fill="#333" d="M133-28C103 26-5 8 13-77c13-62 24-115 90-117 29-1 46 15 56 35 2-12 6-24 8-34h31L144 75h-31zM45-64c-2 27 10 43 35 43 54-1 69-50 69-103 0-29-15-46-42-46-53-1-58 58-62 106" id="ac"/><path fill="#333" d="M67 3c-93-2-31-127-26-193h32L48-50c-3 39 53 32 70 12 30-34 30-101 43-152h32L157 0h-30c1-10 6-24 4-33-14 20-29 37-64 36" id="ad"/><path fill="#333" d="M55-144c13 50 104 24 104 88C159 21 15 23 1-39l26-10c6 40 102 42 102-4-13-50-104-23-104-87 0-71 143-71 148-8l-29 4c-5-35-85-37-89 0" id="ae"/><g id="f"><use transform="matrix(0.04938271604938272,0,0,0.04938271604938272,0,0)" xlink:href="#S"/><use transform="matrix(0.04938271604938272,0,0,0.04938271604938272,5.8765432098765435,0)" xlink:href="#W"/><use transform="matrix(0.04938271604938272,0,0,0.04938271604938272,15.753086419753087,0)" xlink:href="#ac"/><use transform="matrix(0.04938271604938272,0,0,0.04938271604938272,25.629629629629633,0)" xlink:href="#ad"/><use transform="matrix(0.04938271604938272,0,0,0.04938271604938272,35.50617283950618,0)" xlink:href="#W"/><use transform="matrix(0.04938271604938272,0,0,0.04938271604938272,45.38271604938272,0)" xlink:href="#ae"/><use transform="matrix(0.04938271604938272,0,0,0.04938271604938272,54.27160493827161,0)" xlink:href="#V"/></g><path fill="#333" d="M249-183c0 48-29 72-75 77L221 0h-36l-43-103H65L45 0H11l48-248c83 2 190-17 190 65zm-34 3c0-55-74-39-127-41l-18 92c63-1 145 13 145-51" id="af"/><path fill="#333" d="M50-231l6-30h32l-6 30H50zM6 0l37-190h31L37 0H6" id="ag"/><g id="g"><use transform="matrix(0.04938271604938272,0,0,0.04938271604938272,0,0)" xlink:href="#af"/><use transform="matrix(0.04938271604938272,0,0,0.04938271604938272,12.790123456790125,0)" xlink:href="#W"/><use transform="matrix(0.04938271604938272,0,0,0.04938271604938272,22.66666666666667,0)" xlink:href="#X"/><use transform="matrix(0.04938271604938272,0,0,0.04938271604938272,32.543209876543216,0)" xlink:href="#ag"/><use transform="matrix(0.04938271604938272,0,0,0.04938271604938272,36.44444444444445,0)" xlink:href="#S"/><use transform="matrix(0.04938271604938272,0,0,0.04938271604938272,42.320987654320994,0)" xlink:href="#W"/><use transform="matrix(0.04938271604938272,0,0,0.04938271604938272,52.19753086419754,0)" xlink:href="#Z"/><use transform="matrix(0.04938271604938272,0,0,0.04938271604938272,61.08641975308644,0)" xlink:href="#V"/></g><g id="h"><use transform="matrix(0.04938271604938272,0,0,0.04938271604938272,0,0)" xlink:href="#V"/><use transform="matrix(0.04938271604938272,0,0,0.04938271604938272,4.938271604938272,0)" xlink:href="#T"/></g><path fill="#333" d="M6 0l50-261h32L37 0H6" id="ah"/><path fill="#333" d="M103-194c29 0 47 14 56 36 2-11 5-23 8-32h30L160-5C157 61 82 97 21 62 9 55 4 45 1 30l28-7c7 42 83 31 92-3 4-16 9-38 13-55-13 20-29 36-62 36-40 0-60-25-60-64 0-71 23-131 91-131zm4 24c-53 0-58 54-61 104-2 27 10 44 36 44 49 0 65-50 67-102 1-29-15-46-42-46" id="ai"/><g id="i"><use transform="matrix(0.04938271604938272,0,0,0.04938271604938272,0,0)" xlink:href="#ah"/><use transform="matrix(0.04938271604938272,0,0,0.04938271604938272,3.901234567901235,0)" xlink:href="#T"/><use transform="matrix(0.04938271604938272,0,0,0.04938271604938272,13.777777777777779,0)" xlink:href="#ai"/><use transform="matrix(0.04938271604938272,0,0,0.04938271604938272,23.654320987654323,0)" xlink:href="#ag"/><use transform="matrix(0.04938271604938272,0,0,0.04938271604938272,27.555555555555557,0)" xlink:href="#U"/></g><path fill="#333" d="M180 0L97-118 63-96 45 0H11l48-248h34L69-126c44-43 94-81 141-122h43L121-137 219 0h-39" id="aj"/><path fill="#333" d="M198-190L69 30C53 58 25 83-20 72c4-11-1-27 19-22 33-1 43-29 59-52L20-190h32L79-34l84-156h35" id="ak"/><path fill="#333" d="M165-48c-4 18 1 34 23 27l-3 20c-29 8-62 0-52-35h-2C116-14 99 4 63 4 30 4 8-16 8-49c0-68 71-67 138-67 10-26 0-56-31-54-26 1-42 9-47 31l-32-5c8-67 160-71 144 15-5 28-9 54-15 81zM42-50c3 52 80 24 89-6 7-12 7-24 11-38-47 1-103-4-100 44" id="al"/><path fill="#333" d="M127 0L80-88 50-66 37 0H6l51-261h31L57-100l99-90h39l-93 82L161 0h-34" id="am"/><g id="j"><use transform="matrix(0.04938271604938272,0,0,0.04938271604938272,0,0)" xlink:href="#aj"/><use transform="matrix(0.04938271604938272,0,0,0.04938271604938272,11.851851851851853,0)" xlink:href="#W"/><use transform="matrix(0.04938271604938272,0,0,0.04938271604938272,21.7283950617284,0)" xlink:href="#ak"/><use transform="matrix(0.04938271604938272,0,0,0.04938271604938272,30.617283950617285,0)" xlink:href="#Z"/><use transform="matrix(0.04938271604938272,0,0,0.04938271604938272,39.50617283950618,0)" xlink:href="#ah"/><use transform="matrix(0.04938271604938272,0,0,0.04938271604938272,43.40740740740741,0)" xlink:href="#T"/><use transform="matrix(0.04938271604938272,0,0,0.04938271604938272,53.283950617283956,0)" xlink:href="#al"/><use transform="matrix(0.04938271604938272,0,0,0.04938271604938272,63.1604938271605,0)" xlink:href="#am"/><path fill="#333" d="M-.9 1.23h73.84v1.3H-.9z"/></g><path fill="#333" d="M238-179c0 84-86 86-175 82L45 0H11l48-248c82 0 179-12 179 69zm-34 1c0-53-64-42-116-43l-19 98c63 0 135 9 135-55" id="an"/><path fill="#333" d="M14 0l48-248h34L48 0H14" id="ao"/><g id="k"><use transform="matrix(0.04938271604938272,0,0,0.04938271604938272,0,0)" xlink:href="#Y"/><use transform="matrix(0.04938271604938272,0,0,0.04938271604938272,11.851851851851853,0)" xlink:href="#an"/><use transform="matrix(0.04938271604938272,0,0,0.04938271604938272,23.703703703703706,0)" xlink:href="#ao"/><path fill="#333" d="M-.9 1.23h35.37v1.3H-.9z"/></g><path fill="#333" d="M52-101C46-14 166-7 216-51l9-45h-74l6-28h105l-18 87C217-12 181 4 130 4 60 4 18-31 18-101c0-106 78-167 188-146 30 6 48 27 59 54l-34 9c-10-26-31-41-67-40-75 1-107 50-112 123" id="ap"/><path fill="#333" d="M188 0h-37l-8-164L71 0H34L18-190h31l8 164 75-164h34l8 164 74-164h31" id="aq"/><g id="l"><use transform="matrix(0.04938271604938272,0,0,0.04938271604938272,0,0)" xlink:href="#ap"/><use transform="matrix(0.04938271604938272,0,0,0.04938271604938272,13.827160493827162,0)" xlink:href="#al"/><use transform="matrix(0.04938271604938272,0,0,0.04938271604938272,23.703703703703706,0)" xlink:href="#V"/><use transform="matrix(0.04938271604938272,0,0,0.04938271604938272,28.641975308641978,0)" xlink:href="#W"/><use transform="matrix(0.04938271604938272,0,0,0.04938271604938272,38.51851851851852,0)" xlink:href="#aq"/><use transform="matrix(0.04938271604938272,0,0,0.04938271604938272,51.308641975308646,0)" xlink:href="#al"/><use transform="matrix(0.04938271604938272,0,0,0.04938271604938272,61.18518518518519,0)" xlink:href="#ak"/><path fill="#333" d="M-.9 1.23h71.86v1.3H-.9z"/></g><path fill="#3a414a" d="M96-169c-40 0-48 33-48 73s9 75 48 75c24 0 41-14 43-38l32 2c-6 37-31 61-74 61-59 0-76-41-82-99-10-93 101-131 147-64 4 7 5 14 7 22l-32 3c-4-21-16-35-41-35" id="ar"/><path fill="#3a414a" d="M106-169C34-169 62-67 57 0H25v-261h32l-1 103c12-21 28-36 61-36 89 0 53 116 60 194h-32v-121c2-32-8-49-39-48" id="as"/><path fill="#3a414a" d="M143 0L79-87 56-68V0H24v-261h32v163l83-92h37l-77 82L181 0h-38" id="at"/><g id="m"><use transform="matrix(0.05,0,0,0.05,0,0)" xlink:href="#ar"/><use transform="matrix(0.05,0,0,0.05,9,0)" xlink:href="#as"/><use transform="matrix(0.05,0,0,0.05,19,0)" xlink:href="#G"/><use transform="matrix(0.05,0,0,0.05,29,0)" xlink:href="#ar"/><use transform="matrix(0.05,0,0,0.05,38,0)" xlink:href="#at"/></g><path fill="#3a414a" d="M117-194c89-4 53 116 60 194h-32v-121c0-31-8-49-39-48C34-167 62-67 57 0H25l-1-190h30c1 10-1 24 2 32 11-22 29-35 61-36" id="au"/><path fill="#3a414a" d="M24 0v-261h32V0H24" id="av"/><g id="n"><use transform="matrix(0.05,0,0,0.05,0,0)" xlink:href="#ar"/><use transform="matrix(0.05,0,0,0.05,9,0)" xlink:href="#K"/><use transform="matrix(0.05,0,0,0.05,14.949999999999998,0)" xlink:href="#G"/><use transform="matrix(0.05,0,0,0.05,24.95,0)" xlink:href="#L"/><use transform="matrix(0.05,0,0,0.05,34.95,0)" xlink:href="#G"/><use transform="matrix(0.05,0,0,0.05,44.95,0)" xlink:href="#au"/><use transform="matrix(0.05,0,0,0.05,54.95,0)" xlink:href="#H"/><use transform="matrix(0.05,0,0,0.05,59.95,0)" xlink:href="#O"/><use transform="matrix(0.05,0,0,0.05,63.900000000000006,0)" xlink:href="#J"/><use transform="matrix(0.05,0,0,0.05,73.9,0)" xlink:href="#av"/><use transform="matrix(0.05,0,0,0.05,77.85000000000001,0)" xlink:href="#M"/></g><g id="o"><use transform="matrix(0.05,0,0,0.05,0,0)" xlink:href="#M"/><use transform="matrix(0.05,0,0,0.05,9,0)" xlink:href="#Q"/><use transform="matrix(0.05,0,0,0.05,19,0)" xlink:href="#ar"/><use transform="matrix(0.05,0,0,0.05,28,0)" xlink:href="#ar"/><use transform="matrix(0.05,0,0,0.05,37,0)" xlink:href="#G"/><use transform="matrix(0.05,0,0,0.05,47,0)" xlink:href="#M"/><use transform="matrix(0.05,0,0,0.05,56,0)" xlink:href="#M"/></g><g id="p"><use transform="matrix(0.04938271604938272,0,0,0.04938271604938272,0,0)" xlink:href="#an"/><use transform="matrix(0.04938271604938272,0,0,0.04938271604938272,11.851851851851853,0)" xlink:href="#S"/><use transform="matrix(0.04938271604938272,0,0,0.04938271604938272,17.728395061728396,0)" xlink:href="#T"/><use transform="matrix(0.04938271604938272,0,0,0.04938271604938272,27.60493827160494,0)" xlink:href="#X"/><use transform="matrix(0.04938271604938272,0,0,0.04938271604938272,37.48148148148148,0)" xlink:href="#ad"/><use transform="matrix(0.04938271604938272,0,0,0.04938271604938272,47.358024691358025,0)" xlink:href="#Z"/><use transform="matrix(0.04938271604938272,0,0,0.04938271604938272,56.246913580246904,0)" xlink:href="#V"/><path fill="#333" d="M-.9 1.23H67v1.3H-.9z"/></g><path fill="#333" d="M194-120c59 52 2 134-86 124-53-6-90-18-98-63l31-7c8 30 29 43 70 43 46 0 84-17 71-62-32-43-135-20-137-98-3-89 178-90 191-16l-30 9c-8-48-127-53-127 5 0 53 81 35 115 65" id="aw"/><path fill="#333" d="M89 0H52L20-190h33L74-25l89-165h34" id="ax"/><g id="q"><use transform="matrix(0.04938271604938272,0,0,0.04938271604938272,0,0)" xlink:href="#aw"/><use transform="matrix(0.04938271604938272,0,0,0.04938271604938272,11.851851851851853,0)" xlink:href="#W"/><use transform="matrix(0.04938271604938272,0,0,0.04938271604938272,21.7283950617284,0)" xlink:href="#S"/><use transform="matrix(0.04938271604938272,0,0,0.04938271604938272,27.604938271604947,0)" xlink:href="#ax"/><use transform="matrix(0.04938271604938272,0,0,0.04938271604938272,36.49382716049384,0)" xlink:href="#ag"/><use transform="matrix(0.04938271604938272,0,0,0.04938271604938272,40.39506172839507,0)" xlink:href="#Z"/><use transform="matrix(0.04938271604938272,0,0,0.04938271604938272,49.28395061728396,0)" xlink:href="#W"/><path fill="#333" d="M-.9 1.23h60.95v1.3H-.9z"/></g><g id="r"><use transform="matrix(0.05,0,0,0.05,0,0)" xlink:href="#N"/><use transform="matrix(0.05,0,0,0.05,12,0)" xlink:href="#ar"/><use transform="matrix(0.05,0,0,0.05,21,0)" xlink:href="#ar"/><use transform="matrix(0.05,0,0,0.05,30,0)" xlink:href="#G"/><use transform="matrix(0.05,0,0,0.05,40,0)" xlink:href="#M"/><use transform="matrix(0.05,0,0,0.05,49,0)" xlink:href="#M"/></g><path fill="#3a414a" d="M127-220V0H93v-220H8v-28h204v28h-85" id="ay"/><path fill="#3a414a" d="M100-194c62-1 85 37 85 99 1 63-27 99-86 99S16-35 15-95c0-66 28-99 85-99zM99-20c44 1 53-31 53-75 0-43-8-75-51-75s-53 32-53 75 10 74 51 75" id="az"/><g id="s"><use transform="matrix(0.05,0,0,0.05,0,0)" xlink:href="#ay"/><use transform="matrix(0.05,0,0,0.05,8.950000000000001,0)" xlink:href="#az"/><use transform="matrix(0.05,0,0,0.05,18.950000000000003,0)" xlink:href="#at"/><use transform="matrix(0.05,0,0,0.05,27.950000000000003,0)" xlink:href="#G"/><use transform="matrix(0.05,0,0,0.05,37.95,0)" xlink:href="#au"/></g><path fill="#3a414a" d="M87 75C49 33 22-17 22-94c0-76 28-126 65-167h31c-38 41-64 92-64 168S80 34 118 75H87" id="aA"/><path fill="#3a414a" d="M33-261c38 41 65 92 65 168S71 34 33 75H2C39 34 66-17 66-93S39-220 2-261h31" id="aB"/><g id="t"><use transform="matrix(0.05,0,0,0.05,0,0)" xlink:href="#F"/><use transform="matrix(0.05,0,0,0.05,10,0)" xlink:href="#G"/><use transform="matrix(0.05,0,0,0.05,20,0)" xlink:href="#H"/><use transform="matrix(0.05,0,0,0.05,25,0)" xlink:href="#I"/><use transform="matrix(0.05,0,0,0.05,37.95,0)" xlink:href="#J"/><use transform="matrix(0.05,0,0,0.05,47.95,0)" xlink:href="#K"/><use transform="matrix(0.05,0,0,0.05,53.900000000000006,0)" xlink:href="#L"/><use transform="matrix(0.05,0,0,0.05,63.900000000000006,0)" xlink:href="#M"/><use transform="matrix(0.05,0,0,0.05,72.9,0)" xlink:href="#aA"/><use transform="matrix(0.05,0,0,0.05,78.85000000000001,0)" xlink:href="#aB"/></g><path fill="#3a414a" d="M233-177c-1 41-23 64-60 70L243 0h-38l-65-103H63V0H30v-248c88 3 205-21 203 71zM63-129c60-2 137 13 137-47 0-61-80-42-137-45v92" id="aC"/><path fill="#3a414a" d="M240 0l2-218c-23 76-54 145-80 218h-23L58-218 59 0H30v-248h44l77 211c21-75 51-140 76-211h43V0h-30" id="aD"/><path fill="#3a414a" d="M140-251c81 0 123 46 123 126C263-53 228-8 163 1c7 30 30 48 69 40v23c-55 16-95-15-103-61C56-3 17-48 17-125c0-80 42-126 123-126zm0 227c63 0 89-41 89-101s-29-99-89-99c-61 0-89 39-89 99S79-25 140-24" id="aE"/><g id="u"><use transform="matrix(0.05,0,0,0.05,0,0)" xlink:href="#aA"/><use transform="matrix(0.05,0,0,0.05,5.95,0)" xlink:href="#aC"/><use transform="matrix(0.05,0,0,0.05,18.900000000000002,0)" xlink:href="#J"/><use transform="matrix(0.05,0,0,0.05,28.900000000000002,0)" xlink:href="#P"/><use transform="matrix(0.05,0,0,0.05,38.900000000000006,0)" xlink:href="#P"/><use transform="matrix(0.05,0,0,0.05,48.900000000000006,0)" xlink:href="#O"/><use transform="matrix(0.05,0,0,0.05,52.85,0)" xlink:href="#H"/><use transform="matrix(0.05,0,0,0.05,57.85,0)" xlink:href="#aD"/><use transform="matrix(0.05,0,0,0.05,72.80000000000001,0)" xlink:href="#aE"/><use transform="matrix(0.05,0,0,0.05,86.80000000000001,0)" xlink:href="#aB"/></g><g id="v"><use transform="matrix(0.05,0,0,0.05,0,0)" xlink:href="#I"/><use transform="matrix(0.05,0,0,0.05,12.950000000000001,0)" xlink:href="#J"/><use transform="matrix(0.05,0,0,0.05,22.950000000000003,0)" xlink:href="#K"/><use transform="matrix(0.05,0,0,0.05,28.900000000000002,0)" xlink:href="#L"/></g><path fill="#3a414a" d="M115-194c55 1 70 41 70 98S169 2 115 4C84 4 66-9 55-30l1 105H24l-1-265h31l2 30c10-21 28-34 59-34zm-8 174c40 0 45-34 45-75s-6-73-45-74c-42 0-51 32-51 76 0 43 10 73 51 73" id="aF"/><g id="w"><use transform="matrix(0.05,0,0,0.05,0,0)" xlink:href="#aC"/><use transform="matrix(0.05,0,0,0.05,12.950000000000001,0)" xlink:href="#G"/><use transform="matrix(0.05,0,0,0.05,22.950000000000003,0)" xlink:href="#M"/><use transform="matrix(0.05,0,0,0.05,31.950000000000003,0)" xlink:href="#aF"/><use transform="matrix(0.05,0,0,0.05,41.95,0)" xlink:href="#az"/><use transform="matrix(0.05,0,0,0.05,51.95,0)" xlink:href="#au"/><use transform="matrix(0.05,0,0,0.05,61.95,0)" xlink:href="#M"/><use transform="matrix(0.05,0,0,0.05,70.95,0)" xlink:href="#G"/></g><g id="x"><use transform="matrix(0.04938271604938272,0,0,0.04938271604938272,0,0)" xlink:href="#ah"/><use transform="matrix(0.04938271604938272,0,0,0.04938271604938272,3.901234567901235,0)" xlink:href="#T"/><use transform="matrix(0.04938271604938272,0,0,0.04938271604938272,13.777777777777779,0)" xlink:href="#ai"/><use transform="matrix(0.04938271604938272,0,0,0.04938271604938272,23.654320987654323,0)" xlink:href="#T"/><use transform="matrix(0.04938271604938272,0,0,0.04938271604938272,33.53086419753087,0)" xlink:href="#ad"/><use transform="matrix(0.04938271604938272,0,0,0.04938271604938272,43.40740740740741,0)" xlink:href="#V"/></g><g id="y"><use transform="matrix(0.05,0,0,0.05,0,0)" xlink:href="#av"/><use transform="matrix(0.05,0,0,0.05,3.95,0)" xlink:href="#az"/><use transform="matrix(0.05,0,0,0.05,13.949999999999998,0)" xlink:href="#F"/><use transform="matrix(0.05,0,0,0.05,23.95,0)" xlink:href="#az"/><use transform="matrix(0.05,0,0,0.05,33.95,0)" xlink:href="#Q"/><use transform="matrix(0.05,0,0,0.05,43.95,0)" xlink:href="#H"/><use transform="matrix(0.05,0,0,0.05,48.95,0)" xlink:href="#aA"/><use transform="matrix(0.05,0,0,0.05,54.900000000000006,0)" xlink:href="#aB"/></g><path fill="#3a414a" d="M30-248c118-7 216 8 213 122C240-48 200 0 122 0H30v-248zM63-27c89 8 146-16 146-99s-60-101-146-95v194" id="aG"/><g id="z"><use transform="matrix(0.05,0,0,0.05,0,0)" xlink:href="#aG"/><use transform="matrix(0.05,0,0,0.05,12.950000000000001,0)" xlink:href="#G"/><use transform="matrix(0.05,0,0,0.05,22.950000000000003,0)" xlink:href="#av"/><use transform="matrix(0.05,0,0,0.05,26.900000000000002,0)" xlink:href="#G"/><use transform="matrix(0.05,0,0,0.05,36.900000000000006,0)" xlink:href="#H"/><use transform="matrix(0.05,0,0,0.05,41.900000000000006,0)" xlink:href="#G"/></g><g id="A"><use transform="matrix(0.05,0,0,0.05,0,0)" xlink:href="#H"/><use transform="matrix(0.05,0,0,0.05,5,0)" xlink:href="#az"/><use transform="matrix(0.05,0,0,0.05,15,0)" xlink:href="#at"/><use transform="matrix(0.05,0,0,0.05,24,0)" xlink:href="#G"/><use transform="matrix(0.05,0,0,0.05,34,0)" xlink:href="#au"/></g><g id="B"><use transform="matrix(0.05,0,0,0.05,0,0)" xlink:href="#H"/><use transform="matrix(0.05,0,0,0.05,5,0)" xlink:href="#az"/><use transform="matrix(0.05,0,0,0.05,15,0)" xlink:href="#at"/><use transform="matrix(0.05,0,0,0.05,24,0)" xlink:href="#G"/><use transform="matrix(0.05,0,0,0.05,34,0)" xlink:href="#au"/></g><path fill="#3a414a" d="M101-234c-31-9-42 10-38 44h38v23H63V0H32v-167H5v-23h27c-7-52 17-82 69-68v24" id="aH"/><path fill="#3a414a" d="M210-169c-67 3-38 105-44 169h-31v-121c0-29-5-50-35-48C34-165 62-65 56 0H25l-1-190h30c1 10-1 24 2 32 10-44 99-50 107 0 11-21 27-35 58-36 85-2 47 119 55 194h-31v-121c0-29-5-49-35-48" id="aI"/><g id="C"><use transform="matrix(0.05,0,0,0.05,0,0)" xlink:href="#aH"/><use transform="matrix(0.05,0,0,0.05,5,0)" xlink:href="#K"/><use transform="matrix(0.05,0,0,0.05,10.95,0)" xlink:href="#az"/><use transform="matrix(0.05,0,0,0.05,20.95,0)" xlink:href="#aI"/></g><g id="D"><use transform="matrix(0.05,0,0,0.05,0,0)" xlink:href="#ar"/><use transform="matrix(0.05,0,0,0.05,9,0)" xlink:href="#J"/><use transform="matrix(0.05,0,0,0.05,19,0)" xlink:href="#ar"/><use transform="matrix(0.05,0,0,0.05,28,0)" xlink:href="#as"/><use transform="matrix(0.05,0,0,0.05,38,0)" xlink:href="#G"/></g><path fill="#3a414a" d="M30 0v-248h33v221h125V0H30" id="aJ"/><g id="E"><use transform="matrix(0.05,0,0,0.05,0,0)" xlink:href="#F"/><use transform="matrix(0.05,0,0,0.05,10,0)" xlink:href="#G"/><use transform="matrix(0.05,0,0,0.05,20,0)" xlink:href="#H"/><use transform="matrix(0.05,0,0,0.05,25,0)" xlink:href="#I"/><use transform="matrix(0.05,0,0,0.05,37.95,0)" xlink:href="#J"/><use transform="matrix(0.05,0,0,0.05,47.95,0)" xlink:href="#K"/><use transform="matrix(0.05,0,0,0.05,53.900000000000006,0)" xlink:href="#L"/><use transform="matrix(0.05,0,0,0.05,63.900000000000006,0)" xlink:href="#aJ"/><use transform="matrix(0.05,0,0,0.05,73.9,0)" xlink:href="#O"/><use transform="matrix(0.05,0,0,0.05,77.85000000000001,0)" xlink:href="#M"/><use transform="matrix(0.05,0,0,0.05,86.85000000000001,0)" xlink:href="#H"/><use transform="matrix(0.05,0,0,0.05,91.85000000000001,0)" xlink:href="#aA"/><use transform="matrix(0.05,0,0,0.05,97.80000000000001,0)" xlink:href="#aB"/></g></defs></g></svg>