<svg xmlns="http://www.w3.org/2000/svg" xmlns:xlink="http://www.w3.org/1999/xlink" xmlns:lucid="lucid" width="940" height="1076"><g transform="translate(-80 -100)" lucid:page-tab-id="0_0"><path d="M0 0h1760v1360H0z" fill="#fff"/><path d="M280 128a8 8 0 0 1 8-8h704a8 8 0 0 1 8 8v1020a8 8 0 0 1-8 8H288a8 8 0 0 1-8-8z" stroke="#3a414a" fill-opacity="0"/><use xlink:href="#a" transform="matrix(1,0,0,1,288,128) translate(283.725 15.6)"/><use xlink:href="#b" transform="matrix(1,0,0,1,288,128) translate(364.675 15.6)"/><path d="M159.75 459.75c0 10.9-8.84 19.75-19.75 19.75-10.9 0-19.75-8.84-19.75-19.75 0-10.9 8.84-19.75 19.75-19.75 10.9 0 19.75 8.84 19.75 19.75z" stroke="#333" fill="#fff"/><path d="M140 479.5v47.3a27.6 27.6 0 0 0 4.28 14.76L180 598m-40-63.2L100 598m0-98.75h80" stroke="#333" fill="none"/><path d="M100 448a8 8 0 0 1 8-8h64a8 8 0 0 1 8 8v164a8 8 0 0 1-8 8h-64a8 8 0 0 1-8-8z" fill="none"/><use xlink:href="#c" transform="matrix(1,0,0,1,20,598) translate(101.28395061728395 14.555555555555555)"/><path d="M560 340c0 33.14-35.82 60-80 60s-80-26.86-80-60 35.82-60 80-60 80 26.86 80 60z" stroke="#3a414a" fill="#fff"/><use xlink:href="#d" transform="matrix(1,0,0,1,400,280) translate(55.005 63.15)"/><use xlink:href="#e" transform="matrix(1,0,0,1,400,280) translate(90.005 63.15)"/><path d="M560 500c0 33.14-35.82 60-80 60s-80-26.86-80-60 35.82-60 80-60 80 26.86 80 60z" stroke="#3a414a" fill="#fff"/><use xlink:href="#f" transform="matrix(1,0,0,1,400,440) translate(34.279999999999994 63.15)"/><use xlink:href="#g" transform="matrix(1,0,0,1,400,440) translate(77.83 63.15)"/><path d="M560 654c0 33.13-35.82 60-80 60s-80-26.87-80-60c0-33.14 35.82-60 80-60s80 26.86 80 60z" stroke="#3a414a" fill="#fff"/><use xlink:href="#f" transform="matrix(1,0,0,1,400,593.996267786534) translate(33.254999999999995 63.15)"/><use xlink:href="#h" transform="matrix(1,0,0,1,400,593.996267786534) translate(76.805 63.15)"/><path d="M560 820c0 33.14-35.82 60-80 60s-80-26.86-80-60 35.82-60 80-60 80 26.86 80 60z" stroke="#3a414a" fill="#fff"/><use xlink:href="#i" transform="matrix(1,0,0,1,400,760) translate(25.57999999999999 63.15)"/><use xlink:href="#h" transform="matrix(1,0,0,1,400,760) translate(84.48 63.15)"/><path d="M560 958c0 33.14-35.82 60-80 60s-80-26.86-80-60 35.82-60 80-60 80 26.86 80 60z" stroke="#3a414a" fill="#fff"/><use xlink:href="#j" transform="matrix(1,0,0,1,400,898.001866106733) translate(9.604999999999999 63.15)"/><use xlink:href="#k" transform="matrix(1,0,0,1,400,898.001866106733) translate(77.555 63.15)"/><path d="M760 580c0 33.14-35.82 60-80 60s-80-26.86-80-60 35.82-60 80-60 80 26.86 80 60z" stroke="#3a414a" fill="#fff"/><use xlink:href="#f" transform="matrix(1,0,0,1,600,520) translate(38.779999999999994 51.9)"/><use xlink:href="#l" transform="matrix(1,0,0,1,600,520) translate(82.33 51.9)"/><use xlink:href="#m" transform="matrix(1,0,0,1,600,520) translate(52.57999999999999 73.5)"/><path d="M760 760c0 33.14-35.82 60-80 60s-80-26.86-80-60 35.82-60 80-60 80 26.86 80 60z" stroke="#3a414a" fill="#fff"/><use xlink:href="#f" transform="matrix(1,0,0,1,600,700) translate(37.754999999999995 51.9)"/><use xlink:href="#n" transform="matrix(1,0,0,1,600,700) translate(81.305 51.9)"/><use xlink:href="#m" transform="matrix(1,0,0,1,600,700) translate(52.57999999999999 73.5)"/><path d="M920 240c0 33.14-35.82 60-80 60s-80-26.86-80-60 35.82-60 80-60 80 26.86 80 60z" stroke="#3a414a" fill="#fff"/><use xlink:href="#o" transform="matrix(1,0,0,1,760,180) translate(9.654999999999996 63.15)"/><use xlink:href="#p" transform="matrix(1,0,0,1,760,180) translate(59.55499999999999 63.15)"/><path d="M920 380c0 33.14-35.82 60-80 60s-80-26.86-80-60 35.82-60 80-60 80 26.86 80 60z" stroke="#3a414a" fill="#fff"/><use xlink:href="#q" transform="matrix(1,0,0,1,760,320) translate(10.630000000000004 63.15)"/><use xlink:href="#r" transform="matrix(1,0,0,1,760,320) translate(60.580000000000005 63.15)"/><use xlink:href="#s" transform="matrix(1,0,0,1,760,320) translate(109.53 63.15)"/><path d="M536.64 292.66l-4.72 1.1-.23-.97 4.72-1.1zm14.18-3.32l-9.45 2.22-.23-.98 9.45-2.2zm14.17-3.3l-9.46 2.2-.22-.97 9.45-2.22zm14.17-3.33l-9.45 2.22-.23-.97 9.44-2.2zm14.18-3.3l-9.45 2.2-.23-.97 9.45-2.2zm14.17-3.32l-9.45 2.2-.23-.97 9.45-2.2zm14.18-3.32l-9.45 2.2-.23-.96 7.83-1.84h1.7zm99.23-23.22l-4.38 1.02h-4.4l8.55-2zm14.17-3.32l-9.45 2.2-.23-.96 9.45-2.2zm14.18-3.3l-9.45 2.2-.23-.98 9.45-2.2zm9.45-2.23l-4.73 1.1-.22-.97 4.72-1.1z" stroke="#3a414a" stroke-width=".05" fill="#3a414a"/><path d="M531.93 293.76l-.22-.13-1-.6 1-.24z" fill="#3a414a"/><path d="M531.97 293.82l-.27-.17-1.07-.63 1.1-.26zm-1.2-.78l.96.57.16.1-.22-.88zM759.5 240l-15.05 14.42-.7-.72 13.84-13.25-18.3-5.74.3-.94z" stroke="#3a414a" stroke-width=".05" fill="#3a414a"/><use xlink:href="#t" transform="matrix(1,0,0,1,618.7493071828133,250.56421948247555) translate(0.005000000000002558 14.4)"/><path d="M759.1 379.4l-.2 1-5.06-1.03.2-.98zm-10.13-2.03l-.2.98-10.13-2.03.2-.98zm-15.2-3.05l-.2.98-10.13-2.04.2-.98zm-15.2-3.06l-.2.98-10.13-2.03.2-.97zM612 349.84v.84l-.04.17-10.13-2.03.2-.98zm-15.04-3.02l-.2.98-10.13-2.04.2-.98zm-15.2-3.06l-.2.98-10.13-2.03.2-.97zm-15.2-3.05l-.2 1-5.07-1.03.2-.98z" stroke="#3a414a" stroke-width=".05" fill="#3a414a"/><path d="M759.52 379.5l-.02.5v.5l-.6-.1.2-1z" fill="#3a414a"/><path d="M759.54 379.47l-.02.52v.54l-.65-.13.2-1.02zm-.6.9l.54.1v-.98l-.36-.06zM580.5 334.08l-18.07 6.3 14.24 12.82-.67.74L560.5 340l19.68-6.87z" stroke="#3a414a" stroke-width=".05" fill="#3a414a"/><use xlink:href="#u" transform="matrix(1,0,0,1,612,349.2) translate(0.005000000000002558 14.4)"/><path d="M180.35 499.4L320 360l79.02-19.63" stroke="#3a414a" fill="none"/><path d="M180.72 499.74l-2.5 2.48-.7-.7 1.77-1.77h.7v-.72zM399.5 340v.4l.02.36-.4.1-.24-.97.63-.17z" stroke="#3a414a" stroke-width=".05" fill="#3a414a"/><path d="M180.5 499.75L399 500" stroke="#3a414a" fill="none"/><path d="M180.5 499.25v1H177v-.5h3v-.5zM399.52 499.5l-.02.5v.5h-.5v-1z" stroke="#3a414a" stroke-width=".05" fill="#3a414a"/><path d="M180.5 499.86L540 580h59" stroke="#3a414a" fill="none"/><path d="M180.6 499.37l-.2.98-2.7-.6h2.3v-.5zm-3.45-.62l.03-.14.63.15zM599.5 580v.5h-.5v-1h.52z" stroke="#3a414a" stroke-width=".05" fill="#3a414a"/><path d="M180.4 500.04L399.1 653.7" stroke="#3a414a" fill="none"/><path d="M180.7 499.64l-.57.8-1-.7h.87v-.6zm-3-.9l-.44-.3.57-.82 1.62 1.13zM399.52 653.4l-.02.6V654.6l-.7-.5.57-.8z" stroke="#3a414a" stroke-width=".05" fill="#3a414a"/><path d="M180.34 500.12L380 720l219 39.9" stroke="#3a414a" fill="none"/><path d="M180.7 499.8l-.73.67-.65-.72h.68V499zm-2.28-1.05l-.8-.88.73-.68 1.42 1.55zM599.52 759.5l-.02.5v.5l-.6-.1.2-.98z" stroke="#3a414a" stroke-width=".05" fill="#3a414a"/><path d="M180.2 500.2L280 720l119.12 99.68" stroke="#3a414a" fill="none"/><path d="M180.67 500l-.9.42-.32-.67h.55v-1h-1l-.7-1.52.92-.42zM399.52 819.36l-.02.63v.66l-.7-.6.63-.77z" stroke="#3a414a" stroke-width=".05" fill="#3a414a"/><path d="M180.1 500.24L260 860l139.1 97.7" stroke="#3a414a" fill="none"/><path d="M180.6 500.14l-.98.22-.13-.6h.5v-1h-.73l-.4-1.83.97-.22zM399.52 957.4l-.02.6v.62l-.7-.5.57-.82z" stroke="#3a414a" stroke-width=".05" fill="#3a414a"/><path d="M560 1096c0 33.14-35.82 60-80 60s-80-26.86-80-60c0-33.13 35.82-60 80-60s80 26.87 80 60z" stroke="#3a414a" fill="#fff"/><g><use xlink:href="#f" transform="matrix(1,0,0,1,400,1036.003732213466) translate(20.255000000000003 51.9)"/><use xlink:href="#v" transform="matrix(1,0,0,1,400,1036.003732213466) translate(63.80500000000001 51.9)"/><use xlink:href="#w" transform="matrix(1,0,0,1,400,1036.003732213466) translate(62.529999999999994 73.5)"/></g><path d="M180.06 500.25L240 960l159.12 135.68" stroke="#3a414a" fill="none"/><path d="M180.56 500.2l-1 .12-.06-.57h.5v-1h-.63l-.25-1.9 1-.14zM399.52 1095.36l-.02.64v.67l-.7-.62.63-.76z" stroke="#3a414a" stroke-width=".05" fill="#3a414a"/><path d="M860 1096c0 33.14-35.82 60-80 60s-80-26.86-80-60c0-33.13 35.82-60 80-60s80 26.87 80 60z" stroke="#3a414a" fill="#fff"/><g><use xlink:href="#x" transform="matrix(1,0,0,1,700,1036.003732213466) translate(42.529999999999994 51.9)"/><use xlink:href="#y" transform="matrix(1,0,0,1,700,1036.003732213466) translate(22.054999999999993 73.5)"/><use xlink:href="#z" transform="matrix(1,0,0,1,700,1036.003732213466) translate(103.005 73.5)"/></g><path d="M699 1096.5h-5.1v-1h5.1zm-10.2 0h-10.18v-1h10.2zm-107 0h-10.2v-1h10.2zm-15.3 0h-5.1v-1h5.1z" stroke="#3a414a" stroke-width=".05" fill="#3a414a"/><path d="M699.5 1096v.5h-.5v-1h.52z" fill="#3a414a"/><path d="M699.52 1096v.53h-.56v-1.05h.58zm-.5-.47v.95h.46v-.95zM578.95 1086.25l-16.5 9.75 16.5 9.75-.5.86-17.95-10.6 17.94-10.6z" stroke="#3a414a" stroke-width=".05" fill="#3a414a"/><g><use xlink:href="#A" transform="matrix(1,0,0,1,582,1085.203732213466) translate(0.005000000000002558 14.4)"/></g><defs><path fill="#3a414a" d="M30-248c87 1 191-15 191 75 0 78-77 80-158 76V0H30v-248zm33 125c57 0 124 11 124-50 0-59-68-47-124-48v98" id="B"/><path fill="#3a414a" d="M100-194c62-1 85 37 85 99 1 63-27 99-86 99S16-35 15-95c0-66 28-99 85-99zM99-20c44 1 53-31 53-75 0-43-8-75-51-75s-53 32-53 75 10 74 51 75" id="C"/><path fill="#3a414a" d="M143 0L79-87 56-68V0H24v-261h32v163l83-92h37l-77 82L181 0h-38" id="D"/><path fill="#3a414a" d="M100-194c63 0 86 42 84 106H49c0 40 14 67 53 68 26 1 43-12 49-29l28 8c-11 28-37 45-77 45C44 4 14-33 15-96c1-61 26-98 85-98zm52 81c6-60-76-77-97-28-3 7-6 17-6 28h103" id="E"/><path fill="#3a414a" d="M210-169c-67 3-38 105-44 169h-31v-121c0-29-5-50-35-48C34-165 62-65 56 0H25l-1-190h30c1 10-1 24 2 32 10-44 99-50 107 0 11-21 27-35 58-36 85-2 47 119 55 194h-31v-121c0-29-5-49-35-48" id="F"/><path fill="#3a414a" d="M117-194c89-4 53 116 60 194h-32v-121c0-31-8-49-39-48C34-167 62-67 57 0H25l-1-190h30c1 10-1 24 2 32 11-22 29-35 61-36" id="G"/><g id="a"><use transform="matrix(0.05,0,0,0.05,0,0)" xlink:href="#B"/><use transform="matrix(0.05,0,0,0.05,12,0)" xlink:href="#C"/><use transform="matrix(0.05,0,0,0.05,22,0)" xlink:href="#D"/><use transform="matrix(0.05,0,0,0.05,31,0)" xlink:href="#E"/><use transform="matrix(0.05,0,0,0.05,41,0)" xlink:href="#F"/><use transform="matrix(0.05,0,0,0.05,55.95,0)" xlink:href="#C"/><use transform="matrix(0.05,0,0,0.05,65.95,0)" xlink:href="#G"/></g><path fill="#3a414a" d="M185-189c-5-48-123-54-124 2 14 75 158 14 163 119 3 78-121 87-175 55-17-10-28-26-33-46l33-7c5 56 141 63 141-1 0-78-155-14-162-118-5-82 145-84 179-34 5 7 8 16 11 25" id="H"/><path fill="#3a414a" d="M106-169C34-169 62-67 57 0H25v-261h32l-1 103c12-21 28-36 61-36 89 0 53 116 60 194h-32v-121c2-32-8-49-39-48" id="I"/><path fill="#3a414a" d="M84 4C-5 8 30-112 23-190h32v120c0 31 7 50 39 49 72-2 45-101 50-169h31l1 190h-30c-1-10 1-25-2-33-11 22-28 36-60 37" id="J"/><path fill="#3a414a" d="M101-234c-31-9-42 10-38 44h38v23H63V0H32v-167H5v-23h27c-7-52 17-82 69-68v24" id="K"/><path fill="#3a414a" d="M24 0v-261h32V0H24" id="L"/><g id="b"><use transform="matrix(0.05,0,0,0.05,0,0)" xlink:href="#H"/><use transform="matrix(0.05,0,0,0.05,12,0)" xlink:href="#I"/><use transform="matrix(0.05,0,0,0.05,22,0)" xlink:href="#J"/><use transform="matrix(0.05,0,0,0.05,32,0)" xlink:href="#K"/><use transform="matrix(0.05,0,0,0.05,36.65,0)" xlink:href="#K"/><use transform="matrix(0.05,0,0,0.05,41.65,0)" xlink:href="#L"/><use transform="matrix(0.05,0,0,0.05,45.6,0)" xlink:href="#E"/></g><path fill="#333" d="M62-99C39-31 123 0 170-40s38-139 58-208h34C234-144 253 4 115 4 49 4 18-43 31-112l26-136h34" id="M"/><path fill="#333" d="M55-144c13 50 104 24 104 88C159 21 15 23 1-39l26-10c6 40 102 42 102-4-13-50-104-23-104-87 0-71 143-71 148-8l-29 4c-5-35-85-37-89 0" id="N"/><path fill="#333" d="M111-194c62-3 86 47 72 106H45c-7 38 6 69 45 68 27-1 43-14 53-32l24 11C152-15 129 4 87 4 38 3 12-23 12-71c0-70 32-119 99-123zm44 81c14-66-71-72-95-28-4 8-8 17-11 28h106" id="O"/><path fill="#333" d="M66-151c12-25 30-51 66-40l-6 26C45-176 58-65 38 0H6l36-190h30" id="P"/><g id="c"><use transform="matrix(0.04938271604938272,0,0,0.04938271604938272,0,0)" xlink:href="#M"/><use transform="matrix(0.04938271604938272,0,0,0.04938271604938272,12.790123456790125,0)" xlink:href="#N"/><use transform="matrix(0.04938271604938272,0,0,0.04938271604938272,21.679012345679013,0)" xlink:href="#O"/><use transform="matrix(0.04938271604938272,0,0,0.04938271604938272,31.555555555555557,0)" xlink:href="#P"/></g><path d="M30 0v-248h33v221h125V0H30" id="Q"/><path d="M100-194c62-1 85 37 85 99 1 63-27 99-86 99S16-35 15-95c0-66 28-99 85-99zM99-20c44 1 53-31 53-75 0-43-8-75-51-75s-53 32-53 75 10 74 51 75" id="R"/><path d="M177-190C167-65 218 103 67 71c-23-6-38-20-44-43l32-5c15 47 100 32 89-28v-30C133-14 115 1 83 1 29 1 15-40 15-95c0-56 16-97 71-98 29-1 48 16 59 35 1-10 0-23 2-32h30zM94-22c36 0 50-32 50-73 0-42-14-75-50-75-39 0-46 34-46 75s6 73 46 73" id="S"/><g id="d"><use transform="matrix(0.05,0,0,0.05,0,0)" xlink:href="#Q"/><use transform="matrix(0.05,0,0,0.05,10,0)" xlink:href="#R"/><use transform="matrix(0.05,0,0,0.05,20,0)" xlink:href="#S"/></g><path d="M33 0v-248h34V0H33" id="T"/><path d="M117-194c89-4 53 116 60 194h-32v-121c0-31-8-49-39-48C34-167 62-67 57 0H25l-1-190h30c1 10-1 24 2 32 11-22 29-35 61-36" id="U"/><g id="e"><use transform="matrix(0.05,0,0,0.05,0,0)" xlink:href="#T"/><use transform="matrix(0.05,0,0,0.05,5,0)" xlink:href="#U"/></g><path d="M137 0h-34L2-248h35l83 218 83-218h36" id="V"/><path d="M24-231v-30h32v30H24zM24 0v-190h32V0H24" id="W"/><path d="M100-194c63 0 86 42 84 106H49c0 40 14 67 53 68 26 1 43-12 49-29l28 8c-11 28-37 45-77 45C44 4 14-33 15-96c1-61 26-98 85-98zm52 81c6-60-76-77-97-28-3 7-6 17-6 28h103" id="X"/><path d="M206 0h-36l-40-164L89 0H53L-1-190h32L70-26l43-164h34l41 164 42-164h31" id="Y"/><g id="f"><use transform="matrix(0.05,0,0,0.05,0,0)" xlink:href="#V"/><use transform="matrix(0.05,0,0,0.05,11.65,0)" xlink:href="#W"/><use transform="matrix(0.05,0,0,0.05,15.600000000000001,0)" xlink:href="#X"/><use transform="matrix(0.05,0,0,0.05,25.6,0)" xlink:href="#Y"/></g><path d="M212-179c-10-28-35-45-73-45-59 0-87 40-87 99 0 60 29 101 89 101 43 0 62-24 78-52l27 14C228-24 195 4 139 4 59 4 22-46 18-125c-6-104 99-153 187-111 19 9 31 26 39 46" id="Z"/><path d="M141-36C126-15 110 5 73 4 37 3 15-17 15-53c-1-64 63-63 125-63 3-35-9-54-41-54-24 1-41 7-42 31l-33-3c5-37 33-52 76-52 45 0 72 20 72 64v82c-1 20 7 32 28 27v20c-31 9-61-2-59-35zM48-53c0 20 12 33 32 33 41-3 63-29 60-74-43 2-92-5-92 41" id="aa"/><path d="M114-163C36-179 61-72 57 0H25l-1-190h30c1 12-1 29 2 39 6-27 23-49 58-41v29" id="ab"/><path d="M85-194c31 0 48 13 60 33l-1-100h32l1 261h-30c-2-10 0-23-3-31C134-8 116 4 85 4 32 4 16-35 15-94c0-66 23-100 70-100zm9 24c-40 0-46 34-46 75 0 40 6 74 45 74 42 0 51-32 51-76 0-42-9-74-50-73" id="ac"/><path d="M135-143c-3-34-86-38-87 0 15 53 115 12 119 90S17 21 10-45l28-5c4 36 97 45 98 0-10-56-113-15-118-90-4-57 82-63 122-42 12 7 21 19 24 35" id="ad"/><g id="g"><use transform="matrix(0.05,0,0,0.05,0,0)" xlink:href="#Z"/><use transform="matrix(0.05,0,0,0.05,12.950000000000001,0)" xlink:href="#aa"/><use transform="matrix(0.05,0,0,0.05,22.950000000000003,0)" xlink:href="#ab"/><use transform="matrix(0.05,0,0,0.05,28.900000000000002,0)" xlink:href="#ac"/><use transform="matrix(0.05,0,0,0.05,38.900000000000006,0)" xlink:href="#ad"/></g><path d="M30-248c118-7 216 8 213 122C240-48 200 0 122 0H30v-248zM63-27c89 8 146-16 146-99s-60-101-146-95v194" id="ae"/><path d="M96-169c-40 0-48 33-48 73s9 75 48 75c24 0 41-14 43-38l32 2c-6 37-31 61-74 61-59 0-76-41-82-99-10-93 101-131 147-64 4 7 5 14 7 22l-32 3c-4-21-16-35-41-35" id="af"/><path d="M143 0L79-87 56-68V0H24v-261h32v163l83-92h37l-77 82L181 0h-38" id="ag"/><g id="h"><use transform="matrix(0.05,0,0,0.05,0,0)" xlink:href="#ae"/><use transform="matrix(0.05,0,0,0.05,12.950000000000001,0)" xlink:href="#X"/><use transform="matrix(0.05,0,0,0.05,22.950000000000003,0)" xlink:href="#af"/><use transform="matrix(0.05,0,0,0.05,31.950000000000003,0)" xlink:href="#ag"/><use transform="matrix(0.05,0,0,0.05,40.95,0)" xlink:href="#ad"/></g><path d="M59-47c-2 24 18 29 38 22v24C64 9 27 4 27-40v-127H5v-23h24l9-43h21v43h35v23H59v120" id="ah"/><g id="i"><use transform="matrix(0.05,0,0,0.05,0,0)" xlink:href="#Z"/><use transform="matrix(0.05,0,0,0.05,12.950000000000001,0)" xlink:href="#ab"/><use transform="matrix(0.05,0,0,0.05,18.900000000000002,0)" xlink:href="#X"/><use transform="matrix(0.05,0,0,0.05,28.900000000000002,0)" xlink:href="#aa"/><use transform="matrix(0.05,0,0,0.05,38.900000000000006,0)" xlink:href="#ah"/><use transform="matrix(0.05,0,0,0.05,43.900000000000006,0)" xlink:href="#X"/></g><path d="M106-169C34-169 62-67 57 0H25v-261h32l-1 103c12-21 28-36 61-36 89 0 53 116 60 194h-32v-121c2-32-8-49-39-48" id="ai"/><g id="j"><use transform="matrix(0.05,0,0,0.05,0,0)" xlink:href="#Z"/><use transform="matrix(0.05,0,0,0.05,12.950000000000001,0)" xlink:href="#ai"/><use transform="matrix(0.05,0,0,0.05,22.950000000000003,0)" xlink:href="#aa"/><use transform="matrix(0.05,0,0,0.05,32.95,0)" xlink:href="#U"/><use transform="matrix(0.05,0,0,0.05,42.95,0)" xlink:href="#S"/><use transform="matrix(0.05,0,0,0.05,52.95,0)" xlink:href="#X"/></g><path d="M84 4C-5 8 30-112 23-190h32v120c0 31 7 50 39 49 72-2 45-101 50-169h31l1 190h-30c-1-10 1-25-2-33-11 22-28 36-60 37" id="aj"/><path d="M179-190L93 31C79 59 56 82 12 73V49c39 6 53-20 64-50L1-190h34L92-34l54-156h33" id="ak"/><g id="k"><use transform="matrix(0.05,0,0,0.05,0,0)" xlink:href="#Z"/><use transform="matrix(0.05,0,0,0.05,12.950000000000001,0)" xlink:href="#aj"/><use transform="matrix(0.05,0,0,0.05,22.950000000000003,0)" xlink:href="#ab"/><use transform="matrix(0.05,0,0,0.05,28.900000000000002,0)" xlink:href="#ab"/><use transform="matrix(0.05,0,0,0.05,34.85,0)" xlink:href="#X"/><use transform="matrix(0.05,0,0,0.05,44.85,0)" xlink:href="#U"/><use transform="matrix(0.05,0,0,0.05,54.85,0)" xlink:href="#af"/><use transform="matrix(0.05,0,0,0.05,63.85,0)" xlink:href="#ak"/></g><g id="l"><use transform="matrix(0.05,0,0,0.05,0,0)" xlink:href="#Z"/><use transform="matrix(0.05,0,0,0.05,12.950000000000001,0)" xlink:href="#aa"/><use transform="matrix(0.05,0,0,0.05,22.950000000000003,0)" xlink:href="#ab"/><use transform="matrix(0.05,0,0,0.05,28.900000000000002,0)" xlink:href="#ac"/></g><path d="M24 0v-261h32V0H24" id="al"/><g id="m"><use transform="matrix(0.05,0,0,0.05,0,0)" xlink:href="#ae"/><use transform="matrix(0.05,0,0,0.05,12.950000000000001,0)" xlink:href="#X"/><use transform="matrix(0.05,0,0,0.05,22.950000000000003,0)" xlink:href="#ah"/><use transform="matrix(0.05,0,0,0.05,27.950000000000003,0)" xlink:href="#aa"/><use transform="matrix(0.05,0,0,0.05,37.95,0)" xlink:href="#W"/><use transform="matrix(0.05,0,0,0.05,41.900000000000006,0)" xlink:href="#al"/><use transform="matrix(0.05,0,0,0.05,45.85000000000001,0)" xlink:href="#ad"/></g><g id="n"><use transform="matrix(0.05,0,0,0.05,0,0)" xlink:href="#ae"/><use transform="matrix(0.05,0,0,0.05,12.950000000000001,0)" xlink:href="#X"/><use transform="matrix(0.05,0,0,0.05,22.950000000000003,0)" xlink:href="#af"/><use transform="matrix(0.05,0,0,0.05,31.950000000000003,0)" xlink:href="#ag"/></g><path d="M101-234c-31-9-42 10-38 44h38v23H63V0H32v-167H5v-23h27c-7-52 17-82 69-68v24" id="am"/><g id="o"><use transform="matrix(0.05,0,0,0.05,0,0)" xlink:href="#V"/><use transform="matrix(0.05,0,0,0.05,11,0)" xlink:href="#X"/><use transform="matrix(0.05,0,0,0.05,21,0)" xlink:href="#ab"/><use transform="matrix(0.05,0,0,0.05,26.950000000000003,0)" xlink:href="#W"/><use transform="matrix(0.05,0,0,0.05,30.899999999999995,0)" xlink:href="#am"/><use transform="matrix(0.05,0,0,0.05,35.9,0)" xlink:href="#ak"/></g><g id="p"><use transform="matrix(0.05,0,0,0.05,0,0)" xlink:href="#Z"/><use transform="matrix(0.05,0,0,0.05,12.950000000000001,0)" xlink:href="#ab"/><use transform="matrix(0.05,0,0,0.05,18.900000000000002,0)" xlink:href="#X"/><use transform="matrix(0.05,0,0,0.05,28.900000000000002,0)" xlink:href="#ac"/><use transform="matrix(0.05,0,0,0.05,38.900000000000006,0)" xlink:href="#X"/><use transform="matrix(0.05,0,0,0.05,48.900000000000006,0)" xlink:href="#U"/><use transform="matrix(0.05,0,0,0.05,58.900000000000006,0)" xlink:href="#ah"/><use transform="matrix(0.05,0,0,0.05,63.900000000000006,0)" xlink:href="#W"/><use transform="matrix(0.05,0,0,0.05,67.85000000000001,0)" xlink:href="#aa"/><use transform="matrix(0.05,0,0,0.05,77.85000000000001,0)" xlink:href="#al"/><use transform="matrix(0.05,0,0,0.05,81.80000000000001,0)" xlink:href="#ad"/></g><path d="M185-189c-5-48-123-54-124 2 14 75 158 14 163 119 3 78-121 87-175 55-17-10-28-26-33-46l33-7c5 56 141 63 141-1 0-78-155-14-162-118-5-82 145-84 179-34 5 7 8 16 11 25" id="an"/><g id="q"><use transform="matrix(0.05,0,0,0.05,0,0)" xlink:href="#an"/><use transform="matrix(0.05,0,0,0.05,12,0)" xlink:href="#ai"/><use transform="matrix(0.05,0,0,0.05,22,0)" xlink:href="#R"/><use transform="matrix(0.05,0,0,0.05,32,0)" xlink:href="#Y"/></g><g id="r"><use transform="matrix(0.05,0,0,0.05,0,0)" xlink:href="#Q"/><use transform="matrix(0.05,0,0,0.05,10,0)" xlink:href="#R"/><use transform="matrix(0.05,0,0,0.05,20,0)" xlink:href="#S"/><use transform="matrix(0.05,0,0,0.05,30,0)" xlink:href="#W"/><use transform="matrix(0.05,0,0,0.05,33.95,0)" xlink:href="#U"/></g><path d="M30 0v-248h187v28H63v79h144v27H63v87h162V0H30" id="ao"/><g id="s"><use transform="matrix(0.05,0,0,0.05,0,0)" xlink:href="#ao"/><use transform="matrix(0.05,0,0,0.05,12,0)" xlink:href="#ab"/><use transform="matrix(0.05,0,0,0.05,17.95,0)" xlink:href="#ab"/><use transform="matrix(0.05,0,0,0.05,23.9,0)" xlink:href="#R"/><use transform="matrix(0.05,0,0,0.05,33.9,0)" xlink:href="#ab"/></g><path fill="#3a414a" d="M18-100v-36l175-74v27L42-118l151 64v27" id="ap"/><path fill="#3a414a" d="M24-231v-30h32v30H24zM24 0v-190h32V0H24" id="aq"/><path fill="#3a414a" d="M96-169c-40 0-48 33-48 73s9 75 48 75c24 0 41-14 43-38l32 2c-6 37-31 61-74 61-59 0-76-41-82-99-10-93 101-131 147-64 4 7 5 14 7 22l-32 3c-4-21-16-35-41-35" id="ar"/><path fill="#3a414a" d="M85-194c31 0 48 13 60 33l-1-100h32l1 261h-30c-2-10 0-23-3-31C134-8 116 4 85 4 32 4 16-35 15-94c0-66 23-100 70-100zm9 24c-40 0-46 34-46 75 0 40 6 74 45 74 42 0 51-32 51-76 0-42-9-74-50-73" id="as"/><path fill="#3a414a" d="M18-27v-27l151-64-151-65v-27l175 74v36" id="at"/><g id="t"><use transform="matrix(0.05,0,0,0.05,0,0)" xlink:href="#ap"/><use transform="matrix(0.05,0,0,0.05,10.5,0)" xlink:href="#ap"/><use transform="matrix(0.05,0,0,0.05,21,0)" xlink:href="#aq"/><use transform="matrix(0.05,0,0,0.05,24.95,0)" xlink:href="#G"/><use transform="matrix(0.05,0,0,0.05,34.95,0)" xlink:href="#ar"/><use transform="matrix(0.05,0,0,0.05,43.95,0)" xlink:href="#L"/><use transform="matrix(0.05,0,0,0.05,47.900000000000006,0)" xlink:href="#J"/><use transform="matrix(0.05,0,0,0.05,57.900000000000006,0)" xlink:href="#as"/><use transform="matrix(0.05,0,0,0.05,67.9,0)" xlink:href="#E"/><use transform="matrix(0.05,0,0,0.05,77.9,0)" xlink:href="#at"/><use transform="matrix(0.05,0,0,0.05,88.4,0)" xlink:href="#at"/></g><path fill="#3a414a" d="M141 0L90-78 38 0H4l68-98-65-92h35l48 74 47-74h35l-64 92 68 98h-35" id="au"/><path fill="#3a414a" d="M59-47c-2 24 18 29 38 22v24C64 9 27 4 27-40v-127H5v-23h24l9-43h21v43h35v23H59v120" id="av"/><g id="u"><use transform="matrix(0.05,0,0,0.05,0,0)" xlink:href="#ap"/><use transform="matrix(0.05,0,0,0.05,10.5,0)" xlink:href="#ap"/><use transform="matrix(0.05,0,0,0.05,21,0)" xlink:href="#E"/><use transform="matrix(0.05,0,0,0.05,31,0)" xlink:href="#au"/><use transform="matrix(0.05,0,0,0.05,40,0)" xlink:href="#av"/><use transform="matrix(0.05,0,0,0.05,45,0)" xlink:href="#E"/><use transform="matrix(0.05,0,0,0.05,55,0)" xlink:href="#G"/><use transform="matrix(0.05,0,0,0.05,65,0)" xlink:href="#as"/><use transform="matrix(0.05,0,0,0.05,75,0)" xlink:href="#at"/><use transform="matrix(0.05,0,0,0.05,85.5,0)" xlink:href="#at"/></g><path d="M30-248c87 1 191-15 191 75 0 78-77 80-158 76V0H30v-248zm33 125c57 0 124 11 124-50 0-59-68-47-124-48v98" id="aw"/><path d="M210-169c-67 3-38 105-44 169h-31v-121c0-29-5-50-35-48C34-165 62-65 56 0H25l-1-190h30c1 10-1 24 2 32 10-44 99-50 107 0 11-21 27-35 58-36 85-2 47 119 55 194h-31v-121c0-29-5-49-35-48" id="ax"/><g id="v"><use transform="matrix(0.05,0,0,0.05,0,0)" xlink:href="#aw"/><use transform="matrix(0.05,0,0,0.05,12,0)" xlink:href="#R"/><use transform="matrix(0.05,0,0,0.05,22,0)" xlink:href="#ag"/><use transform="matrix(0.05,0,0,0.05,31,0)" xlink:href="#X"/><use transform="matrix(0.05,0,0,0.05,41,0)" xlink:href="#ax"/><use transform="matrix(0.05,0,0,0.05,55.95,0)" xlink:href="#R"/><use transform="matrix(0.05,0,0,0.05,65.95,0)" xlink:href="#U"/></g><path d="M63-220v92h138v28H63V0H30v-248h175v28H63" id="ay"/><g id="w"><use transform="matrix(0.05,0,0,0.05,0,0)" xlink:href="#ay"/><use transform="matrix(0.05,0,0,0.05,10.950000000000001,0)" xlink:href="#aa"/><use transform="matrix(0.05,0,0,0.05,20.950000000000003,0)" xlink:href="#af"/><use transform="matrix(0.05,0,0,0.05,29.950000000000003,0)" xlink:href="#ah"/></g><path d="M143 4C61 4 22-44 18-125c-5-107 100-154 193-111 17 8 29 25 37 43l-32 9c-13-25-37-40-76-40-61 0-88 39-88 99 0 61 29 100 91 101 35 0 62-11 79-27v-45h-74v-28h105v86C228-13 192 4 143 4" id="az"/><g id="x"><use transform="matrix(0.05,0,0,0.05,0,0)" xlink:href="#az"/><use transform="matrix(0.05,0,0,0.05,14,0)" xlink:href="#X"/><use transform="matrix(0.05,0,0,0.05,24,0)" xlink:href="#U"/><use transform="matrix(0.05,0,0,0.05,34,0)" xlink:href="#X"/><use transform="matrix(0.05,0,0,0.05,44,0)" xlink:href="#ab"/><use transform="matrix(0.05,0,0,0.05,49.95,0)" xlink:href="#aa"/><use transform="matrix(0.05,0,0,0.05,59.95,0)" xlink:href="#ah"/><use transform="matrix(0.05,0,0,0.05,64.95,0)" xlink:href="#X"/></g><g id="y"><use transform="matrix(0.05,0,0,0.05,0,0)" xlink:href="#aw"/><use transform="matrix(0.05,0,0,0.05,12,0)" xlink:href="#R"/><use transform="matrix(0.05,0,0,0.05,22,0)" xlink:href="#ag"/><use transform="matrix(0.05,0,0,0.05,31,0)" xlink:href="#X"/><use transform="matrix(0.05,0,0,0.05,41,0)" xlink:href="#ax"/><use transform="matrix(0.05,0,0,0.05,55.95,0)" xlink:href="#R"/><use transform="matrix(0.05,0,0,0.05,65.95,0)" xlink:href="#U"/></g><g id="z"><use transform="matrix(0.05,0,0,0.05,0,0)" xlink:href="#ay"/><use transform="matrix(0.05,0,0,0.05,10.950000000000001,0)" xlink:href="#aa"/><use transform="matrix(0.05,0,0,0.05,20.950000000000003,0)" xlink:href="#af"/><use transform="matrix(0.05,0,0,0.05,29.950000000000003,0)" xlink:href="#ah"/></g><g id="A"><use transform="matrix(0.05,0,0,0.05,0,0)" xlink:href="#ap"/><use transform="matrix(0.05,0,0,0.05,10.5,0)" xlink:href="#ap"/><use transform="matrix(0.05,0,0,0.05,21,0)" xlink:href="#E"/><use transform="matrix(0.05,0,0,0.05,31,0)" xlink:href="#au"/><use transform="matrix(0.05,0,0,0.05,40,0)" xlink:href="#av"/><use transform="matrix(0.05,0,0,0.05,45,0)" xlink:href="#E"/><use transform="matrix(0.05,0,0,0.05,55,0)" xlink:href="#G"/><use transform="matrix(0.05,0,0,0.05,65,0)" xlink:href="#as"/><use transform="matrix(0.05,0,0,0.05,75,0)" xlink:href="#at"/><use transform="matrix(0.05,0,0,0.05,85.5,0)" xlink:href="#at"/></g></defs></g></svg>